<svg width="48" height="49" viewBox="0 0 48 49" fill="none" xmlns="http://www.w3.org/2000/svg">
<g filter="url(#filter0_i_157_72)">
<path fill-rule="evenodd" clip-rule="evenodd" d="M28.9406 12.8599C29.7953 12.5373 30.7041 12.1487 31.5912 11.9485C34.5324 11.2845 37.7488 12.4284 39.4626 14.9395C44.1043 14.1305 46.7551 20.0341 42.0644 22.7222C41.9241 24.8157 41.2356 26.5184 39.7099 27.9993C38.2903 29.377 35.106 30.5853 33.044 30.5516C29.8938 30.3957 28.8952 28.1786 27.2245 28.1532C26.2734 28.1079 25.2014 28.8759 24.9494 29.8008C24.3508 32 24.6615 32.582 22.7887 34.4318C21.5781 35.6273 17.882 36.9129 16.2342 36.8587C14.1056 36.7885 12.3694 35.996 10.9075 34.4665C9.93877 34.6559 9.28272 34.7591 8.29481 34.4515C4.81517 33.3678 4.60763 28.5554 7.74629 26.9855C7.25542 23.5432 9.13126 20.4146 12.328 19.1229L28.9406 12.8599ZM13.4633 20.0277C10.2392 20.865 8.28232 24.255 9.09754 27.4666C9.64567 29.3328 10.8555 32.7694 12.1823 33.9891C14.5854 36.1979 16.8909 35.8165 19.5692 34.7781L20.1372 34.563C21.8366 33.9141 23.0234 32.7522 23.4761 30.9395C23.6173 30.2764 23.6399 29.6631 23.9206 29.0343C24.8389 26.9775 27.5492 26.2406 29.3501 27.6181C31.1654 29.0066 32.6653 29.928 35.1243 28.9826C37.3784 28.2127 39.2476 27.4141 40.2882 25.0814C40.9824 23.5252 41.0137 22.0114 40.4104 20.4026L39.4672 17.8975C39.2645 17.3593 39.0565 16.7319 38.805 16.2237C37.6043 13.7994 34.725 12.6192 32.124 13.1044C31.2177 13.2734 30.4083 13.6392 29.5608 13.9599L13.4633 20.0277ZM7.95295 28.3395C6.13956 29.7409 6.4079 32.3609 8.55199 33.2483C9.10875 33.4345 9.49435 33.4538 10.0801 33.3956C9.78388 32.7999 8.07155 28.3516 8.02206 28.3124L7.95295 28.3395ZM41.1785 18.9766C41.4938 19.8135 41.7806 20.4937 41.9735 21.3737C42.4598 21.0504 42.7549 20.6821 43.0223 20.1664C43.9243 18.0565 42.0153 15.6102 40.1339 16.2081L41.1785 18.9766ZM13.7466 22.457C14.3843 22.1846 15.6504 21.5522 15.8353 22.6465C15.9287 23.271 15.3283 23.4648 14.8639 23.6242C13.3041 24.1603 12.4009 25.7804 12.5859 27.3905C12.6215 27.6992 12.744 27.9838 12.7828 28.292C12.798 29.0278 11.7371 29.382 11.3981 28.6554C10.3701 26.4494 11.6928 23.6235 13.7466 22.457ZM17.5059 21.0399C18.5174 20.5968 19.6591 20.2335 20.7008 19.8419C21.5157 19.5356 22.0934 20.694 21.3379 21.1943C20.2882 21.6183 19.1882 21.9981 18.1267 22.3933C17.358 22.6789 16.6897 21.6286 17.5059 21.0399ZM34.7431 0.539001C35.6984 0.178974 37.1442 -0.695137 36.3846 1.05364C35.8149 2.365 35.2036 3.65677 34.6344 4.96847C35.5343 4.62833 36.4317 4.2868 37.3363 3.95211C38.0073 3.70403 38.4756 3.99563 37.963 4.55705C37.8352 4.64018 37.3224 4.80611 37.1591 4.86634L34.1501 6.01203C33.9474 6.08989 33.6253 6.06687 33.5537 5.82251C33.4553 5.48123 35.3275 1.58833 35.5769 1.08153C34.6141 1.42028 33.6646 1.83412 32.6963 2.15797C32.241 2.31003 31.9841 1.84175 32.3052 1.46107L34.7431 0.539001Z" fill="#DBD7D3"/>
</g>
<defs>
<filter id="filter0_i_157_72" x="0" y="0" width="48" height="50.9402" filterUnits="userSpaceOnUse" color-interpolation-filters="sRGB">
<feFlood flood-opacity="0" result="BackgroundImageFix"/>
<feBlend mode="normal" in="SourceGraphic" in2="BackgroundImageFix" result="shape"/>
<feColorMatrix in="SourceAlpha" type="matrix" values="0 0 0 0 0 0 0 0 0 0 0 0 0 0 0 0 0 0 127 0" result="hardAlpha"/>
<feMorphology radius="1" operator="erode" in="SourceAlpha" result="effect1_innerShadow_157_72"/>
<feOffset dy="2"/>
<feGaussianBlur stdDeviation="2"/>
<feComposite in2="hardAlpha" operator="arithmetic" k2="-1" k3="1"/>
<feColorMatrix type="matrix" values="0 0 0 0 0 0 0 0 0 0 0 0 0 0 0 0 0 0 0.05 0"/>
<feBlend mode="normal" in2="shape" result="effect1_innerShadow_157_72"/>
</filter>
</defs>
</svg>
